/* XPM */
static char * Prism App_16x16_xpm[] = {
"16 16 157 2",
"  	c None",
". 	c #F1F1F2",
"+ 	c #ECEBED",
"@ 	c #E5E4E9",
"# 	c #E2E0E6",
"$ 	c #DFE0E5",
"% 	c #E0E0E6",
"& 	c #DFDFE5",
"* 	c #E1E1E6",
"= 	c #E6E6EA",
"- 	c #ECECEF",
"; 	c #F0F1F2",
"> 	c #DFC5C8",
", 	c #D8D9C5",
"' 	c #D0DDE1",
") 	c #D7D4E1",
"! 	c #E3E2E9",
"~ 	c #E3E3E9",
"{ 	c #DDDDE4",
"] 	c #DCDCE3",
"^ 	c #D6D6DF",
"/ 	c #CDCDD9",
"( 	c #EFEFF1",
"_ 	c #F0F1F3",
": 	c #DF9B99",
"< 	c #C4CB68",
"[ 	c #5EC5BD",
"} 	c #AD95D0",
"| 	c #E9DFEA",
"1 	c #E1E2E8",
"2 	c #C5C5D2",
"3 	c #B8B8CA",
"4 	c #BEBECE",
"5 	c #BCBCCD",
"6 	c #E79186",
"7 	c #C9D23D",
"8 	c #2DCEBE",
"9 	c #8D58C6",
"0 	c #D4B7D6",
"a 	c #B7B9C9",
"b 	c #B3B3C6",
"c 	c #B9B9CB",
"d 	c #BBBBCC",
"e 	c #EEEEF0",
"f 	c #EA8C7B",
"g 	c #CCD81F",
"h 	c #0CD6C2",
"i 	c #8645CA",
"j 	c #D6B3D5",
"k 	c #B1B4C5",
"l 	c #C0C0CF",
"m 	c #ADADC1",
"n 	c #6B6B90",
"o 	c #E8E8EC",
"p 	c #EFF0F3",
"q 	c #E3877A",
"r 	c #C9D527",
"s 	c #13D2BF",
"t 	c #8443C6",
"u 	c #D7B5D6",
"v 	c #BABDCC",
"w 	c #A3A3BA",
"x 	c #8282A1",
"y 	c #65658B",
"z 	c #E9E9EC",
"A 	c #EEEFF2",
"B 	c #D17E7C",
"C 	c #BDC741",
"D 	c #2CC1B5",
"E 	c #7E49BA",
"F 	c #D3B6D5",
"G 	c #B6B8C8",
"H 	c #B1B1C5",
"I 	c #ABABC0",
"J 	c #A6A6BC",
"K 	c #9292AD",
"L 	c #EBEBEE",
"M 	c #EEEFF1",
"N 	c #BC7E86",
"O 	c #A3AB51",
"P 	c #3AA5A4",
"Q 	c #7750AD",
"R 	c #D4C0D9",
"S 	c #B5B6C8",
"T 	c #C5C5D4",
"U 	c #C4C4D3",
"V 	c #BDBDCE",
"W 	c #AEAEC1",
"X 	c #EDEDEF",
"Y 	c #B58C9A",
"Z 	c #959C65",
"` 	c #519BA1",
" .	c #9075B9",
"..	c #E2D4E5",
"+.	c #C7C8D5",
"@.	c #D5D5E0",
"#.	c #D4D4DF",
"$.	c #CECEDA",
"%.	c #C1C1D0",
"&.	c #EDEEF0",
"*.	c #AE90A1",
"=.	c #B0B497",
"-.	c #83B4BA",
";.	c #C9BADF",
">.	c #F4ECF5",
",.	c #D4D5DF",
"'.	c #E0E0E8",
").	c #DFDFE7",
"!.	c #DADAE3",
"~.	c #D1D1DC",
"{.	c #F0F0F1",
"].	c #EDEDF0",
"^.	c #AC98AA",
"/.	c #C0C1B4",
"(.	c #BAD2D8",
"_.	c #E0D7EC",
":.	c #FAF5FA",
"<.	c #DDDEE6",
"[.	c #E8E8EE",
"}.	c #E7E7ED",
"|.	c #E5E5EB",
"1.	c #E1E1E8",
"2.	c #F1F1F3",
"3.	c #DFDFE2",
"4.	c #B6ABC0",
"5.	c #C5C6C4",
"6.	c #CEDBE1",
"7.	c #E8E3F0",
"8.	c #FCF9FC",
"9.	c #E5E5EC",
"0.	c #F2F2F5",
"a.	c #EFEFF3",
"b.	c #EEEEF2",
"c.	c #F9F9FE",
"d.	c #E1E1E3",
"e.	c #B8B5BF",
"f.	c #E4E4EA",
"g.	c #E4E8EF",
"h.	c #EEECF3",
"i.	c #FDFCFD",
"j.	c #ECECF0",
"k.	c #F1F1F4",
"l.	c #F5F5F9",
"m.	c #FCFCFF",
"n.	c #D5D5D9",
"o.	c #5B5B5D",
"p.	c #C2C2C8",
"q.	c #F6F6FC",
"r.	c #FCFCFE",
"s.	c #F4F4F8",
"t.	c #FDFDFF",
"u.	c #CFCFD3",
"v.	c #616163",
"w.	c #58585A",
"x.	c #D2D2D5",
"y.	c #D5D5D8",
"z.	c #606061",
"    . + @ # $ % % & * = - .     ",
"    ; > , ' ) ! ~ { ] ^ / (     ",
"    _ : < [ } | 1 2 3 4 5 (     ",
"    _ 6 7 8 9 0 a b c 4 d e     ",
"    _ f g h i j k d l m n o     ",
"    p q r s t u v 4 w x y z     ",
"    A B C D E F G H I J K L     ",
"    M N O P Q R S T U V W X     ",
"    e Y Z `  ...+.@.#.$.%.e     ",
"    &.*.=.-.;.>.,.'.).!.~.{.    ",
"    ].^./.(._.:.<.[.}.|.1.2.    ",
"    3.4.5.6.7.8.9.0.a.b.c.d.    ",
"      e.f.g.h.i.j.k.l.m.n.      ",
"        o.p.q.r.s.t.u.v.        ",
"            w.x.y.z.            ",
"                                "};
