/* XPM */
static char * launcher_32x32_xpm[] = {
"32 32 257 2",
"  	c None",
". 	c #FFFFFF",
"+ 	c #675C5D",
"@ 	c #9D999A",
"# 	c #C1C1C1",
"$ 	c #FFFEFE",
"% 	c #B81F2C",
"& 	c #FB818B",
"* 	c #D82635",
"= 	c #B51E2B",
"- 	c #EB8E94",
"; 	c #DC2D3C",
"> 	c #ED3141",
", 	c #74595C",
"' 	c #FCE2E3",
") 	c #EE9BA1",
"! 	c #F55562",
"~ 	c #9D1924",
"{ 	c #A31B26",
"] 	c #D52635",
"^ 	c #A21A26",
"/ 	c #F98B93",
"( 	c #F5BCC0",
"_ 	c #EC6E76",
": 	c #FA5D6A",
"< 	c #A01A26",
"[ 	c #A61B27",
"} 	c #D22533",
"| 	c #AE1C29",
"1 	c #DD2837",
"2 	c #FA868E",
"3 	c #FFFCFC",
"4 	c #CE2533",
"5 	c #E9626C",
"6 	c #B11D2A",
"7 	c #EBB6BB",
"8 	c #F99098",
"9 	c #FD969E",
"0 	c #9A1924",
"a 	c #FB7781",
"b 	c #F29199",
"c 	c #F6626E",
"d 	c #AA1C28",
"e 	c #FD9099",
"f 	c #9F1925",
"g 	c #F24553",
"h 	c #EC969B",
"i 	c #B31E2B",
"j 	c #991824",
"k 	c #FD929B",
"l 	c #ECB6BA",
"m 	c #BD202D",
"n 	c #968F90",
"o 	c #FB7F88",
"p 	c #F27079",
"q 	c #F9ACB2",
"r 	c #FC8891",
"s 	c #F96975",
"t 	c #FD98A0",
"u 	c #B21D2A",
"v 	c #A4888A",
"w 	c #E53644",
"x 	c #FD8C95",
"y 	c #75464A",
"z 	c #FC808A",
"A 	c #FD858E",
"B 	c #E92D3C",
"C 	c #E82B3A",
"D 	c #FA7B85",
"E 	c #F24A57",
"F 	c #FC8D96",
"G 	c #E62B3A",
"H 	c #FA8D95",
"I 	c #BE202E",
"J 	c #F3505D",
"K 	c #F5525F",
"L 	c #F36B75",
"M 	c #FB7D86",
"N 	c #F24755",
"O 	c #FCDADC",
"P 	c #E42A38",
"Q 	c #A91B28",
"R 	c #FD8E97",
"S 	c #BB202D",
"T 	c #EC2C3C",
"U 	c #AC1C28",
"V 	c #B81E2B",
"W 	c #F87A83",
"X 	c #FD7A85",
"Y 	c #EC999F",
"Z 	c #F23E4C",
"` 	c #DA2736",
" .	c #FD949B",
"..	c #937073",
"+.	c #F95A66",
"@.	c #8D6B6D",
"#.	c #AD1D29",
"$.	c #F55966",
"%.	c #7B5F61",
"&.	c #D22734",
"*.	c #FE9CA3",
"=.	c #A11A25",
"-.	c #F9D1D5",
";.	c #ECB7BC",
">.	c #FC8A93",
",.	c #EAB9BD",
"'.	c #FA747E",
").	c #F65E6A",
"!.	c #F55A67",
"~.	c #B61F2C",
"{.	c #E52D3B",
"].	c #785C5E",
"^.	c #FD838C",
"/.	c #FB717B",
"(.	c #A01925",
"_.	c #AB1C28",
":.	c #7E6163",
"<.	c #F44B59",
"[.	c #F4A4AA",
"}.	c #FD7F88",
"|.	c #FA626E",
"1.	c #816265",
"2.	c #EF3C4B",
"3.	c #FB6571",
"4.	c #FA6D79",
"5.	c #D12533",
"6.	c #AF1D2A",
"7.	c #F85561",
"8.	c #876669",
"9.	c #FC868F",
"0.	c #FC8992",
"a.	c #FE9AA2",
"b.	c #A71B27",
"c.	c #AB1C29",
"d.	c #B61E2B",
"e.	c #AC1D29",
"f.	c #EF3444",
"g.	c #F45663",
"h.	c #B7202C",
"i.	c #F9A4AB",
"j.	c #FEECED",
"k.	c #FD717B",
"l.	c #B11D29",
"m.	c #981D27",
"n.	c #F8949B",
"o.	c #FC7D87",
"p.	c #88676A",
"q.	c #EC2D3D",
"r.	c #EE2E3E",
"s.	c #9C1924",
"t.	c #8A696B",
"u.	c #DF2A38",
"v.	c #9F8285",
"w.	c #C1222F",
"x.	c #F24351",
"y.	c #FBCED1",
"z.	c #F84553",
"A.	c #F7727C",
"B.	c #C92432",
"C.	c #F13C4A",
"D.	c #F34D59",
"E.	c #F34F5C",
"F.	c #CF2937",
"G.	c #E42A3A",
"H.	c #FFF7F7",
"I.	c #F13745",
"J.	c #FEF2F3",
"K.	c #FC757F",
"L.	c #836466",
"M.	c #906D70",
"N.	c #C52330",
"O.	c #EF3A49",
"P.	c #E12938",
"Q.	c #FD989F",
"R.	c #E22B3A",
"S.	c #F9515F",
"T.	c #AD1C29",
"U.	c #967679",
"V.	c #FC6B76",
"W.	c #E92B3B",
"X.	c #F2303F",
"Y.	c #EF3847",
"Z.	c #F02F3F",
"`.	c #C72C38",
" +	c #DF2937",
".+	c #FB7983",
"++	c #A81B27",
"@+	c #E15460",
"#+	c #F74250",
"$+	c #F9B1B7",
"%+	c #F94D5A",
"&+	c #997B7C",
"*+	c #FA99A0",
"=+	c #F73E4C",
"-+	c #CD333F",
";+	c #F84A57",
">+	c #F18D95",
",+	c #FC727D",
"'+	c #E89096",
")+	c #F77E87",
"!+	c #DD6D75",
"~+	c #C82230",
"{+	c #ED717B",
"]+	c #EA3241",
"^+	c #814046",
"/+	c #F5505C",
"(+	c #FE9DA4",
"_+	c #B11E2B",
":+	c #EF838B",
"<+	c #F13948",
"[+	c #F53B49",
"}+	c #F8CBCF",
"|+	c #A89192",
"1+	c #E18D94",
"2+	c #EF2E3D",
"3+	c #FDE5E7",
"4+	c #F54C59",
"5+	c #F44756",
"6+	c #FD8B93",
"7+	c #A88D90",
"8+	c #D82836",
"9+	c #F0A8AD",
"0+	c #F4B2B7",
"a+	c #F2B5B8",
"b+	c #F3B8BC",
"c+	c #FB6873",
"d+	c #EE535F",
"e+	c #FB6C77",
"f+	c #EA7680",
"g+	c #EE7C85",
"h+	c #EE7F88",
"i+	c #FD9AA1",
"j+	c #937274",
"k+	c #F15662",
"l+	c #A91C28",
"m+	c #9C7F81",
"n+	c #FABFC4",
"o+	c #F33241",
"p+	c #EF3442",
"q+	c #F53644",
"r+	c #E8A8AD",
"s+	c #FB848D",
"t+	c #A61A26",
"u+	c #793C42",
"v+	c #A71A27",
"w+	c #D23D4A",
"x+	c #EF9FA4",
"y+	c #967577",
"z+	c #9D1925",
"A+	c #856467",
"B+	c #E14956",
"C+	c #ED4451",
"D+	c #D32B39",
"E+	c #F7848E",
"F+	c #EF3D4C",
"G+	c #F1424F",
"H+	c #E22938",
"      @ @ @ @ @ @ @ @ @ @ @ @ @ @ @ @ @ @ @ @ @ @ @ @ @ @       ",
"    n K.X }.^.r 6+R e k 9 t i+a.*.*.(+*.*.*.a.t 9 9 k e F n     ",
"  n +.k.K.X }.^.9.0.x e e  .9 9 Q.t t t t 9 9  .k e R 6+r s n   ",
"n z.3.V./.K..+o.z A r 6+x R e k k  . . .k k e e R x 0.9.^.z s n ",
"..: : 3.s 4.,+a X o.& A 9.0.>.x F F R F F F x >.r A ^.z o..+a |+",
"..7.+.: |.c+e+/.K.a D o & s+s+9.r 0.0.0.r 9.s+s+& z M .+a './.7+",
"..%+S.7.: |.3.s 4./.'.a D M o o & & & & & z o o D .+a './.4.s v ",
"y+z.;+J.. . . . . . . . . . . D *+. . . . . . . . . . . . H |.v ",
"..=+#+. . . . $ . . $ $ $ $ $ W / 3 $ $ $ $ $ . . $ . . . / +.v.",
"M.q+[+$ . . . q s & / / / H 8 2 s o n.8 8 8 n.2 )+j.. . q 7.7.m+",
"@.X.o+$ . . . H.A.K ! $.!.).).c c c c c c c c ).q . . n+/+/+4+&+",
"@.r.Z.$ . n.3+. . E+<.E.K ! g.$.$.$.!.!.$.$.! i.. . y.<.<.5+g U.",
"t.B q.$ . $.Z 3+. . n.g E D.D.E.J J J J J E.n.. . O N g x.Z Z j+",
"p.{.C $ . p 2+I.O $ . i.Z G+x.g g N N N N )+. . j.g Z C.<+I.p+M.",
"p.u.R.$ . _ B B > n+. . $+Y.O.O.2.2.F+F+L . . H.N Y.f.p+> r.q.@.",
"8.1 1 $ . _ G.G G q . . . n+> r.> > > k+. . $ E q.q.T T T W.W.@.",
"L.8+8+$ . _ u.u.[.. . ' . . y.]+C W.C+$ . . d+C C C C G G G P t.",
"1.&.&.$ . 5 8+>+. . b R.b . . 3+{.w J.. . 5 P P P P H+P.P. + +p.",
"1.4 4 $ . @+f+. . [.` ` ` :+. g+w ' . . {+ + +1 1 1 1 1 1 ` ` 8.",
":.B.B.$ . -.. . 0+] } ] ] ] B+; }+. . h+* * * * * * * * ] ] ] A+",
"%.N.N.$ . . . b+F.4 4 4 4 4 &.( . . - } } } } } } } } } 5.5.5.L.",
"%.I w.$ . . . a+- Y h h - F.) . . $ x+h Y h Y x+x+x+x+9+- D+4 1.",
"%.S m . . . . . . . . . -.-+. . . . . . . . . . . . . . . '+~+:.",
"].h.h.1+,.7 7 7 7 7 7 ;.r+`.!+;.;.;.;.;.;.;.;.;.;.;.;.;.l w+w.:.",
"]._+i i i = ~.~.~.~.% % % % % % S S S S S m m m m m m I I I I %.",
", #.#.#.6.6.6 6 6 6 6 u u u i = = = = = d.V V V V V V V V % % %.",
", d d d d d c.c.c.e.e.e.#.#.#.#.6.6.6.6 6 6 u u u i i i = = = ].",
"+ [ [ [ [ [ [ [ [ [ [ b.b.++Q Q Q d d _.U U U U T.| | | | l.l.+ ",
"+ u+< < < < < =.=.=.^ ^ { { { { { { [ [ [ [ [ b.++++l+d _._.^++ ",
"  + m.~ ~ ~ ~ ~ ~ ~ ~ ~ ~ f f f f (.(.(.< =.^ ^ ^ { t+t+v+m.+   ",
"    + y 0 j j j j j j j 0 0 0 0 0 0 0 s.s.z+f f f < =.^ y +     ",
"      + + + + + + + + + + + + + + + + + + + + + + + + + +       "};
